<?xml version="1.0" encoding="utf-8"?>
<!-- Generator: Adobe Illustrator 24.0.0, SVG Export Plug-In . SVG Version: 6.00 Build 0)  -->
<svg version="1.1" xmlns="http://www.w3.org/2000/svg" xmlns:xlink="http://www.w3.org/1999/xlink" x="0px" y="0px"
	 viewBox="0 0 256 256" style="enable-background:new 0 0 256 256;" xml:space="preserve">
<style type="text/css">
	.st0{fill:#F98FA6;}
	.st1{fill:#FC657E;}
	.st2{fill:#DAE6F1;}
	.st3{fill:#5290DB;}
	.st4{fill:#FCDD86;}
	.st5{fill:#F5C84C;}
	.st6{fill:#87D147;}
	.st7{fill:#70D6F9;}
	.st8{fill:#EDF4FC;}
	.st9{fill:#9BE5F9;}
	.st10{fill:#B2E26D;}
	.st11{fill:#F9C1A8;}
	.st12{fill:#414344;}
	.st13{fill:#E1FBFF;}
	.st14{fill:#FFE3EC;}
	.st15{fill:#FCBECF;}
	.st16{fill:#EF4460;}
	.st17{fill:#80C2F9;}
	.st18{fill:#3A70BF;}
	.st19{fill:#FCA265;}
	.st20{fill:#5B5D60;}
	.st21{fill:#818182;}
	.st22{fill:#C7D7E5;}
	.st23{fill:#F9D0B4;}
	.st24{fill:#AA6F59;}
	.st25{fill:#D1856D;}
	.st26{fill:#FCC29A;}
	.st27{fill:#29589F;}
	.st28{fill:#F7B386;}
	.st29{fill:#FC8C48;}
	.st30{fill:#FFF0CC;}
	.st31{fill:#57AF12;}
	.st32{fill:#3CAADC;}
	.st33{fill:#EDB311;}
	.st34{fill:#231F20;}
</style>
<g id="Layer_1">
</g>
<g id="Layer_2">
</g>
<g id="Layer_3">
</g>
<g id="Layer_4">
</g>
<g id="Layer_5">
</g>
<g id="Layer_6">
</g>
<g id="Layer_7">
</g>
<g id="Layer_8">
</g>
<g id="Layer_9">
</g>
<g id="Layer_10">
</g>
<g id="Layer_11">
</g>
<g id="Layer_12">
</g>
<g id="Layer_13">
</g>
<g id="Layer_14">
</g>
<g id="Layer_15">
</g>
<g id="Layer_16">
</g>
<g id="Layer_17">
</g>
<g id="Layer_18">
</g>
<g id="Layer_19">
	<g>
		<g>
			<g>
				<path class="st5" d="M225.849,30.542c0.24-0.342,0.07-0.818-0.332-0.931l-12.044-3.396c-0.251-0.071-0.519,0.027-0.666,0.243
					l-17.675,26.028c-0.232,0.342-0.061,0.811,0.337,0.923l11.682,3.294c0.394,0.111,0.567,0.573,0.342,0.915l-10.24,15.606
					c-0.372,0.566,0.325,1.223,0.869,0.818l26.524-19.76c0.403-0.3,0.286-0.933-0.198-1.069l-11.28-3.18
					c-0.402-0.113-0.571-0.589-0.332-0.931L225.849,30.542z"/>
			</g>
		</g>
		<g>
			<g>
				<path class="st5" d="M60.867,52.485L43.192,26.458c-0.146-0.216-0.415-0.313-0.666-0.243l-12.044,3.396
					c-0.402,0.113-0.571,0.589-0.332,0.931l13.013,18.56c0.24,0.342,0.07,0.818-0.332,0.931l-11.28,3.18
					c-0.484,0.136-0.601,0.769-0.198,1.069l26.524,19.76c0.543,0.405,1.24-0.252,0.868-0.818l-10.24-15.606
					c-0.225-0.342-0.052-0.804,0.342-0.915l11.682-3.294C60.929,53.297,61.1,52.828,60.867,52.485z"/>
			</g>
		</g>
		<g>
			<g>
				<path class="st11" d="M166.931,67.372c-0.022-1.121-0.919-2.044-2.04-2.077c-16.414-0.481-25.063-6.987-28.386-10.244
					c-0.907-0.889-2.372-0.796-3.162,0.199c-14.431,18.148-35.721,15.587-42.879,14.089c-1.301-0.272-2.549,0.708-2.55,2.037v31.811
					c0,21.731,17.78,39.511,39.511,39.511h0c21.731,0,39.512-17.78,39.512-39.511V67.99
					C166.937,67.783,166.935,67.577,166.931,67.372z"/>
			</g>
		</g>
		<g>
			<g>
				<path class="st1" d="M135.464,108.5h-15.927c-2.77,0-5.036,2.266-5.036,5.036v2.964c0,7.15,5.85,13,13,13s13-5.85,13-13v-2.964
					C140.5,110.766,138.234,108.5,135.464,108.5z"/>
			</g>
		</g>
		<g>
			<g>
				<path class="st8" d="M135.464,108.5h-15.927c-2.77,0-5.036,2.266-5.036,5.036v2.964h26v-2.964
					C140.5,110.766,138.234,108.5,135.464,108.5z"/>
			</g>
		</g>
		<g>
			<g>
				<path class="st12" d="M158.344,25.461c-4.21,0-8.147,1.19-11.529,3.218c-3.952-6.594-11.15-11.047-19.355-11.047h-11.59
					c-22.431,0-40.784,18.353-40.784,40.784v18.274c2.822-2.258,6.397-3.617,10.293-3.617c0.863,0,1.708,0.073,2.535,0.201v-1.899
					c0.001-1.329,1.249-2.309,2.55-2.037c7.158,1.498,28.447,4.059,42.879-14.089c0.791-0.994,2.255-1.088,3.162-0.199
					c3.323,3.258,11.972,9.763,28.386,10.244c1.12,0.033,2.018,0.956,2.04,2.077c0.004,0.206,0.006,0.411,0.006,0.618v5.285
					c0.827-0.128,1.672-0.201,2.535-0.201c4.447,0,8.475,1.768,11.442,4.629V48.031C180.914,35.617,170.758,25.461,158.344,25.461z"
					/>
			</g>
		</g>
		<g>
			<g>
				<path class="st11" d="M169.472,73.074c-0.863,0-1.708,0.073-2.535,0.201v29.912c0,0.891-0.041,1.773-0.1,2.65
					c0.86,0.138,1.736,0.23,2.635,0.23c9.111,0,16.496-7.386,16.496-16.496C185.969,80.459,178.583,73.074,169.472,73.074z"/>
			</g>
		</g>
		<g>
			<g>
				<path class="st11" d="M87.914,103.187V73.275c-0.827-0.128-1.672-0.201-2.535-0.201c-9.111,0-16.496,7.386-16.496,16.496
					c0,9.111,7.386,16.496,16.496,16.496c0.899,0,1.775-0.092,2.635-0.23v-0.001C87.955,104.959,87.914,104.077,87.914,103.187z"/>
			</g>
		</g>
		<g>
			<g>
				<path class="st7" d="M207.109,184.212c-0.38-6.813-5.145-12.588-11.762-14.253l-30.685-7.724l-10.845-5.347
					c-4.661-2.299-7.613-7.045-7.613-12.242v-6.726c-5.594,3.045-11.993,4.779-18.777,4.779h0c-6.326,0-12.313-1.516-17.628-4.188
					v6.135c0,5.197-2.952,9.944-7.613,12.242l-10.845,5.347l-30.685,7.724c-6.617,1.666-11.383,7.441-11.762,14.253l-4.369,64.713
					c-0.138,2.485,1.839,4.576,4.328,4.576h158.299c2.489,0,4.466-2.091,4.328-4.576L207.109,184.212z"/>
			</g>
		</g>
		<g>
			<g>
				<path class="st11" d="M153.816,156.887c-4.661-2.299-7.613-7.045-7.613-12.242v-6.726c-5.594,3.045-11.993,4.779-18.777,4.779h0
					c-6.326,0-12.313-1.516-17.628-4.188v6.135c0,5.197-2.952,9.944-7.613,12.242l-1.703,0.84
					c5.147,9.986,15.566,16.861,27.52,16.861c11.954,0,22.373-6.875,27.52-16.861L153.816,156.887z"/>
			</g>
		</g>
		<g>
			<g>
				<g>
					<path d="M169.43,67.322c-0.049-2.466-2.011-4.454-4.466-4.526c-15.804-0.463-23.943-6.82-26.709-9.531
						c-0.937-0.918-2.226-1.399-3.527-1.316c-1.308,0.081-2.525,0.718-3.343,1.746l0.001-0.001
						c-13.325,16.757-32.701,14.81-40.409,13.199c-1.374-0.289-2.78,0.055-3.868,0.938c-1.075,0.874-1.693,2.165-1.694,3.573v31.784
						c0,23.166,18.847,42.012,42.012,42.012s42.011-18.846,42.011-42.012V67.99C169.437,67.767,169.435,67.545,169.43,67.322z
						 M164.437,103.187c0,20.408-16.603,37.012-37.011,37.012s-37.012-16.604-37.012-37.012V71.88
						c7.226,1.428,29.494,3.942,44.634-14.761c4.076,3.878,13.098,10.093,29.388,10.663c0.001,0.069,0.001,0.139,0.001,0.208
						V103.187z"/>
				</g>
			</g>
		</g>
		<g>
			<g>
				<path d="M158.345,22.961c-3.695,0-7.355,0.839-10.711,2.443c-4.708-6.389-12.238-10.272-20.174-10.272h-11.59
					c-23.867,0-43.284,19.417-43.284,43.284v17.605c0,1.381,1.119,2.5,2.5,2.5s2.5-1.119,2.5-2.5V58.417
					c0-21.11,17.174-38.284,38.284-38.284h11.59c6.981,0,13.576,3.768,17.21,9.832c0.341,0.569,0.894,0.979,1.537,1.14
					c0.642,0.16,1.324,0.06,1.893-0.281c3.123-1.873,6.666-2.862,10.245-2.862c11.066,0,20.069,9.003,20.069,20.07v29.063
					c0,1.381,1.119,2.5,2.5,2.5s2.5-1.119,2.5-2.5V48.031C183.414,34.207,172.168,22.961,158.345,22.961z"/>
			</g>
		</g>
		<g>
			<g>
				<path d="M182.726,200.458c-1.381,0-2.5,1.119-2.5,2.5v49.523c0,1.381,1.119,2.5,2.5,2.5s2.5-1.119,2.5-2.5v-49.523
					C185.226,201.577,184.106,200.458,182.726,200.458z"/>
			</g>
		</g>
		<g>
			<g>
				<path d="M73.274,200.458c-1.381,0-2.5,1.119-2.5,2.5v49.523c0,1.381,1.119,2.5,2.5,2.5s2.5-1.119,2.5-2.5v-49.523
					C75.774,201.577,74.655,200.458,73.274,200.458z"/>
			</g>
		</g>
		<g>
			<g>
				<path d="M169.473,70.574c-0.589,0-1.193,0.03-1.796,0.088c-1.374,0.134-2.38,1.356-2.246,2.73
					c0.134,1.375,1.362,2.381,2.73,2.246c0.442-0.043,0.884-0.065,1.312-0.065c7.718,0,13.996,6.279,13.996,13.996
					c0,7.718-6.278,13.997-13.996,13.997c-0.482,0-0.984-0.032-1.534-0.099c-1.374-0.166-2.617,0.812-2.782,2.182
					c-0.165,1.371,0.812,2.616,2.183,2.782c0.751,0.091,1.449,0.135,2.134,0.135c10.475,0,18.996-8.522,18.996-18.997
					S179.947,70.574,169.473,70.574z"/>
			</g>
		</g>
		<g>
			<g>
				<path d="M89.557,105.685c-0.155-1.372-1.385-2.354-2.766-2.203c-0.501,0.057-0.963,0.084-1.412,0.084
					c-7.718,0-13.997-6.279-13.997-13.997c0-7.717,6.279-13.996,13.997-13.996c0.406,0,0.809,0.019,1.206,0.055
					c1.375,0.125,2.592-0.888,2.716-2.263c0.125-1.375-0.888-2.591-2.263-2.716c-0.553-0.05-1.111-0.076-1.659-0.076
					c-10.475,0-18.997,8.521-18.997,18.996s8.522,18.997,18.997,18.997c0.639,0,1.285-0.038,1.975-0.116
					C88.726,108.295,89.712,107.057,89.557,105.685z"/>
			</g>
		</g>
		<g>
			<g>
				<path d="M213.972,248.756l-4.367-64.683c-0.442-7.949-5.927-14.595-13.647-16.539l-30.429-7.659l-10.606-5.23
					c-3.836-1.891-6.219-5.723-6.219-10v-6.02c0-1.381-1.119-2.5-2.5-2.5s-2.5,1.119-2.5,2.5v6.02
					c0,6.195,3.451,11.746,9.008,14.484l10.845,5.348c0.158,0.078,0.324,0.139,0.495,0.182l30.686,7.724
					c5.587,1.406,9.556,6.216,9.878,11.997l4.367,64.684c0.028,0.508-0.148,0.992-0.499,1.362c-0.35,0.37-0.823,0.574-1.333,0.574
					H48.851c-0.51,0-0.983-0.204-1.333-0.574c-0.351-0.37-0.527-0.854-0.501-1.333l4.371-64.742
					c0.32-5.752,4.289-10.562,9.876-11.968l30.686-7.724c0.171-0.043,0.337-0.104,0.495-0.182l10.845-5.348
					c5.557-2.739,9.008-8.289,9.008-14.484v-5.354c0-1.381-1.119-2.5-2.5-2.5s-2.5,1.119-2.5,2.5v5.354
					c0,4.277-2.383,8.109-6.219,10l-10.606,5.23l-30.429,7.659c-7.721,1.943-13.205,8.59-13.646,16.509l-4.371,64.742
					c-0.104,1.867,0.573,3.717,1.858,5.076C45.17,255.221,46.98,256,48.851,256h158.299c1.87,0,3.681-0.779,4.966-2.139
					C213.4,252.502,214.078,250.652,213.972,248.756z"/>
			</g>
		</g>
		<g>
			<g>
				<path d="M156.386,156.153c-1.212-0.659-2.73-0.213-3.391,1c-5.017,9.212-14.594,14.935-24.995,14.935
					c-10.331,0-19.877-5.666-24.913-14.786c-0.668-1.209-2.188-1.646-3.396-0.98c-1.209,0.667-1.647,2.188-0.98,3.397
					c5.916,10.714,17.14,17.369,29.29,17.369c12.233,0,23.493-6.723,29.386-17.544C158.046,158.332,157.599,156.813,156.386,156.153
					z"/>
			</g>
		</g>
		<g>
			<g>
				<g>
					<path d="M135.464,106h-15.928c-4.155,0-7.536,3.381-7.536,7.537v2.963c0,8.547,6.953,15.5,15.5,15.5s15.5-6.953,15.5-15.5
						v-2.963C143,109.381,139.619,106,135.464,106z M138,116.5c0,5.79-4.71,10.5-10.5,10.5s-10.5-4.71-10.5-10.5v-2.963
						c0-1.399,1.138-2.537,2.536-2.537h15.928c1.398,0,2.536,1.138,2.536,2.537V116.5z"/>
				</g>
			</g>
		</g>
		<g>
			<g>
				<path d="M139.875,114h-24.792c-1.381,0-2.5,1.119-2.5,2.5s1.119,2.5,2.5,2.5h24.792c1.381,0,2.5-1.119,2.5-2.5
					S141.256,114,139.875,114z"/>
			</g>
		</g>
		<g>
			<g>
				<path d="M110,83.5c-4.963,0-9,4.038-9,9c0,1.381,1.119,2.5,2.5,2.5s2.5-1.119,2.5-2.5c0-2.206,1.794-4,4-4s4,1.794,4,4
					c0,1.381,1.119,2.5,2.5,2.5s2.5-1.119,2.5-2.5C119,87.538,114.963,83.5,110,83.5z"/>
			</g>
		</g>
		<g>
			<g>
				<path d="M146,83.5c-4.963,0-9,4.038-9,9c0,1.381,1.119,2.5,2.5,2.5s2.5-1.119,2.5-2.5c0-2.206,1.794-4,4-4s4,1.794,4,4
					c0,1.381,1.119,2.5,2.5,2.5s2.5-1.119,2.5-2.5C155,87.538,150.963,83.5,146,83.5z"/>
			</g>
		</g>
		<g>
			<g>
				<path d="M228.736,80.146c-0.195-1.366-1.452-2.317-2.828-2.122l-28,4c-1.367,0.195-2.316,1.462-2.121,2.829
					c0.178,1.247,1.247,2.147,2.472,2.147c0.117,0,0.236-0.008,0.356-0.025l28-4C227.982,82.78,228.932,81.513,228.736,80.146z"/>
			</g>
		</g>
		<g>
			<g>
				<path d="M219.709,96.041l-22-4c-1.361-0.249-2.66,0.654-2.907,2.012s0.654,2.66,2.013,2.907l22,4
					c0.151,0.028,0.302,0.041,0.45,0.041c1.185,0,2.237-0.846,2.457-2.053C221.969,97.589,221.067,96.287,219.709,96.041z"/>
			</g>
		</g>
		<g>
			<g>
				<g>
					<path d="M228.278,29.151c-0.337-0.946-1.115-1.673-2.082-1.946l-12.044-3.396c-1.286-0.361-2.657,0.136-3.412,1.245
						l-17.676,26.028c-0.56,0.824-0.689,1.875-0.348,2.811c0.342,0.935,1.118,1.654,2.074,1.923l9.194,2.592l-8.823,13.447
						c-0.827,1.262-0.63,2.929,0.468,3.963c0.596,0.561,1.361,0.846,2.13,0.846c0.649,0,1.301-0.204,1.855-0.616l26.523-19.76
						c0.956-0.712,1.416-1.883,1.199-3.055c-0.217-1.173-1.064-2.102-2.211-2.425l-8.711-2.456l11.48-16.375
						c0,0,0.001-0.001,0.001-0.001C228.474,31.153,228.616,30.097,228.278,29.151z M210.788,47.668
						c-0.576,0.823-0.719,1.878-0.381,2.824c0.337,0.946,1.115,1.674,2.082,1.947l7.578,2.136l-14.844,11.059l4.359-6.645
						c0.541-0.824,0.658-1.867,0.313-2.79s-1.116-1.634-2.066-1.903l-9.152-2.58l15.432-22.724l8.16,2.301L210.788,47.668z"/>
				</g>
			</g>
		</g>
		<g>
			<g>
				<g>
					<path d="M62.936,51.081L45.26,25.053c-0.001-0.001-0.001-0.001-0.001-0.002c-0.752-1.106-2.121-1.608-3.411-1.243
						l-12.044,3.396c-0.967,0.272-1.745,1-2.082,1.946c-0.338,0.946-0.195,2.002,0.382,2.826l11.48,16.375l-8.71,2.456
						c-1.147,0.323-1.995,1.252-2.212,2.425c-0.217,1.172,0.243,2.343,1.199,3.055l26.524,19.761
						c0.554,0.413,1.205,0.616,1.854,0.616c0.769,0,1.534-0.285,2.13-0.846c1.098-1.035,1.295-2.701,0.467-3.965l-8.822-13.445
						l9.191-2.591c0.959-0.27,1.735-0.989,2.077-1.924C63.625,52.956,63.495,51.905,62.936,51.081z M48.168,54.296
						c-0.948,0.269-1.72,0.979-2.064,1.903s-0.228,1.966,0.313,2.79l4.359,6.645L35.933,54.575l7.578-2.136
						c0.967-0.273,1.745-1,2.082-1.947c0.338-0.946,0.195-2.001-0.382-2.826L33.73,31.292l8.16-2.301l15.432,22.724L48.168,54.296z"
						/>
				</g>
			</g>
		</g>
		<g>
			<g>
				<path d="M58.092,82.025l-28-4c-1.378-0.196-2.634,0.755-2.828,2.122c-0.195,1.367,0.754,2.633,2.121,2.829l28,4
					C57.505,86.992,57.624,87,57.741,87c1.225,0,2.294-0.9,2.472-2.147C60.408,83.487,59.459,82.22,58.092,82.025z"/>
			</g>
		</g>
		<g>
			<g>
				<path d="M61.198,94.053c-0.247-1.358-1.549-2.261-2.907-2.012l-22,4c-1.358,0.247-2.26,1.548-2.013,2.907
					c0.22,1.207,1.272,2.053,2.457,2.053c0.148,0,0.299-0.013,0.45-0.041l22-4C60.544,96.713,61.445,95.411,61.198,94.053z"/>
			</g>
		</g>
		<g>
			<g>
				<path class="st1" d="M168.311,197.464c-4.345-4.047-11.187-3.736-15.386,0.463c-0.406,0.406-1.065,0.406-1.471,0
					c-4.199-4.199-11.04-4.51-15.386-0.463c-4.562,4.249-4.658,11.395-0.287,15.765l14.146,14.146c1.25,1.25,3.276,1.25,4.526,0
					l14.146-14.146C172.969,208.859,172.873,201.713,168.311,197.464z"/>
			</g>
		</g>
		<g>
			<g>
				<g>
					<path d="M170.016,195.635c-4.898-4.563-12.624-4.649-17.825-0.408c-5.206-4.242-12.928-4.154-17.826,0.408
						c-2.7,2.515-4.223,5.928-4.288,9.61c-0.065,3.684,1.333,7.147,3.938,9.752l14.146,14.146c1.111,1.111,2.571,1.667,4.031,1.667
						c1.459,0,2.919-0.556,4.03-1.667l14.146-14.145c2.604-2.604,4.003-6.068,3.938-9.751
						C174.239,201.563,172.716,198.15,170.016,195.635z M166.831,211.462l-14.146,14.146c-0.274,0.273-0.719,0.272-0.991,0
						l-14.146-14.146c-1.636-1.637-2.515-3.813-2.474-6.128c0.041-2.313,0.999-4.458,2.697-6.04
						c1.568-1.461,3.604-2.184,5.662-2.184c2.255,0,4.536,0.868,6.252,2.584c1.338,1.339,3.669,1.337,5.007,0
						c3.283-3.283,8.627-3.463,11.914-0.401c1.698,1.582,2.656,3.727,2.697,6.041C169.346,207.649,168.468,209.825,166.831,211.462z
						"/>
				</g>
			</g>
		</g>
		<g>
			<g>
				<path d="M175.112,208.319h-17.2c-0.787,0-1.528,0.371-2,1l-0.911,1.215l-3.503-6.305c-0.405-0.728-1.146-1.207-1.977-1.277
					c-0.83-0.072-1.642,0.279-2.161,0.93l-3.549,4.437h-14.924c-1.381,0-2.5,1.119-2.5,2.5s1.119,2.5,2.5,2.5h16.125
					c0.76,0,1.478-0.345,1.952-0.938l1.972-2.465l3.565,6.417c0.411,0.74,1.17,1.222,2.016,1.28c0.057,0.004,0.113,0.006,0.17,0.006
					c0.783,0,1.526-0.368,2-1l2.475-3.3h15.95c1.381,0,2.5-1.119,2.5-2.5S176.493,208.319,175.112,208.319z"/>
			</g>
		</g>
		<g>
			<g>
				<path class="st5" d="M198.983,17.697c-4.498-0.838-8.043-4.31-8.898-8.716c-0.043-0.221-0.352-0.221-0.395,0
					c-0.855,4.406-4.4,7.879-8.898,8.716c-0.226,0.042-0.226,0.345,0,0.387c4.498,0.838,8.042,4.31,8.898,8.717
					c0.043,0.221,0.352,0.221,0.395,0c0.855-4.406,4.4-7.879,8.898-8.717C199.208,18.042,199.208,17.739,198.983,17.697z"/>
			</g>
		</g>
		<g>
			<g>
				<path class="st1" d="M211.106,154.361c-3.221-0.6-5.76-3.087-6.372-6.243c-0.031-0.158-0.252-0.158-0.283,0
					c-0.612,3.156-3.151,5.643-6.372,6.243c-0.162,0.03-0.162,0.247,0,0.277c3.221,0.6,5.76,3.087,6.372,6.243
					c0.031,0.159,0.252,0.159,0.283,0c0.612-3.156,3.151-5.643,6.372-6.243C211.268,154.608,211.268,154.392,211.106,154.361z"/>
			</g>
		</g>
		<g>
			<g>
				<path class="st7" d="M74.694,137.302h-2.329v-2.33c0-1.744-1.413-3.157-3.157-3.157c-1.744,0-3.157,1.413-3.157,3.157v2.33
					h-2.33c-1.744,0-3.157,1.413-3.157,3.157s1.413,3.157,3.157,3.157h2.33v2.33c0,1.744,1.413,3.157,3.157,3.157
					c1.744,0,3.157-1.413,3.157-3.157v-2.33h2.329c1.744,0,3.157-1.413,3.157-3.157S76.438,137.302,74.694,137.302z"/>
			</g>
		</g>
		<g>
			<g>
				<circle class="st10" cx="166.999" cy="3.377" r="3.377"/>
			</g>
		</g>
		<g>
			<g>
				<circle class="st5" cx="47.999" cy="156.377" r="3.377"/>
			</g>
		</g>
	</g>
</g>
<g id="Layer_20">
</g>
<g id="Layer_21">
</g>
<g id="Layer_22">
</g>
<g id="Layer_23">
</g>
<g id="Layer_24">
</g>
<g id="Layer_25">
</g>
<g id="Layer_26">
</g>
<g id="Layer_27">
</g>
<g id="Layer_28">
</g>
<g id="Layer_29">
</g>
<g id="Layer_30">
</g>
<g id="Layer_31">
</g>
<g id="Layer_32">
</g>
<g id="Layer_33">
</g>
<g id="Layer_34">
</g>
<g id="Layer_35">
</g>
<g id="Layer_36">
</g>
<g id="Layer_37">
</g>
<g id="Layer_38">
</g>
<g id="Layer_39">
</g>
<g id="Layer_40">
</g>
<g id="Layer_41">
</g>
<g id="Layer_42">
</g>
<g id="Layer_43">
</g>
<g id="Layer_44">
</g>
<g id="Layer_45">
</g>
<g id="Layer_46">
</g>
<g id="Layer_47">
</g>
<g id="Layer_48">
</g>
<g id="Layer_49">
</g>
<g id="Layer_50">
</g>
<g id="Layer_51">
</g>
<g id="Layer_52">
</g>
<g id="Layer_53">
</g>
<g id="Layer_54">
</g>
<g id="Layer_55">
</g>
<g id="Layer_56">
</g>
<g id="Layer_57">
</g>
<g id="Layer_58">
</g>
<g id="Layer_59">
</g>
<g id="Layer_60">
</g>
<g id="Layer_61">
</g>
<g id="Layer_62">
</g>
<g id="Layer_63">
</g>
<g id="Layer_64">
</g>
<g id="Layer_65">
</g>
<g id="Layer_66">
</g>
<g id="Layer_67">
</g>
<g id="Layer_68">
</g>
<g id="Layer_69">
</g>
<g id="Layer_70">
</g>
<g id="Layer_71">
</g>
<g id="Layer_72">
</g>
<g id="Layer_73">
</g>
<g id="Layer_74">
</g>
<g id="Layer_75">
</g>
<g id="Layer_76">
</g>
<g id="Layer_77">
</g>
<g id="Layer_78">
</g>
<g id="Layer_79">
</g>
<g id="Layer_80">
</g>
<g id="Layer_81">
</g>
<g id="Layer_82">
</g>
<g id="Layer_83">
</g>
<g id="Layer_84">
</g>
<g id="Layer_85">
</g>
</svg>
